# xmcd CD database file
#
# Track frame offsets:
#	150
#	20772
#	46894
#	70916
#	93603
#	110623
#	136223
#	157549
#	184746
#	202700
#	219830
#	237569
#
# Disc length: 3563 seconds
#
# Revision: 0
# Processed by: cddbd v1.4PL0 Copyright (c) Steve Scherf et al.
# Submitted via: CDex 1.50
#
DISCID=9c0de90c
DTITLE=Betty Bryant - But Beautiful
DYEAR=1999
DGENRE=Jazz
TTITLE0=The Girl From Ipanema
TTITLE1=But Beautiful
TTITLE2=I Got Rhythm
TTITLE3=I Thought About You
TTITLE4=As Time Goes By
TTITLE5=But Not For Me
TTITLE6=When I Fall In Love
TTITLE7=Blus In G
TTITLE8=The Nearness Of You
TTITLE9=Makin' Whoopee
TTITLE10=Unforgetable
TTITLE11=On Green Dolphin Street
EXTD=YEAR: 1999
EXTT0=
EXTT1=
EXTT2=
EXTT3=
EXTT4=
EXTT5=
EXTT6=
EXTT7=
EXTT8=
EXTT9=
EXTT10=
EXTT11=
PLAYORDER=
